<svg width="1000" height="90" viewBox="0 0 1000 90" xmlns="http://www.w3.org/2000/svg" role="img" aria-label="Extra tech badges">
  <style>
    .pill { font-family: Inter,Segoe UI,Roboto,Arial,sans-serif; font-size: 14px; fill: #e5e7eb; }
    .cap { fill: #0b1220; stroke:#1f2937; stroke-width:1; }
    .dot { fill: #22d3ee; }
  </style>
  <g transform="translate(10,18)"><rect width="110" height="36" rx="18" class="cap"/><circle cx="18" cy="18" r="4" class="dot"/><text x="32" y="24" class="pill">REST API</text></g><g transform="translate(130,18)"><rect width="120" height="36" rx="18" class="cap"/><circle cx="18" cy="18" r="4" class="dot"/><text x="32" y="24" class="pill">WordPress</text></g><g transform="translate(260,18)"><rect width="100" height="36" rx="18" class="cap"/><circle cx="18" cy="18" r="4" class="dot"/><text x="32" y="24" class="pill">Odoo</text></g><g transform="translate(370,18)"><rect width="140" height="36" rx="18" class="cap"/><circle cx="18" cy="18" r="4" class="dot"/><text x="32" y="24" class="pill">React Native</text></g><g transform="translate(520,18)"><rect width="100" height="36" rx="18" class="cap"/><circle cx="18" cy="18" r="4" class="dot"/><text x="32" y="24" class="pill">ChatGPT</text></g><g transform="translate(630,18)"><rect width="120" height="36" rx="18" class="cap"/><circle cx="18" cy="18" r="4" class="dot"/><text x="32" y="24" class="pill">DeepSeek</text></g><g transform="translate(770,18)"><rect width="90" height="36" rx="18" class="cap"/><circle cx="18" cy="18" r="4" class="dot"/><text x="32" y="24" class="pill">n8n</text></g><g transform="translate(870,18)"><rect width="90" height="36" rx="18" class="cap"/><circle cx="18" cy="18" r="4" class="dot"/><text x="32" y="24" class="pill">SQL</text></g><g transform="translate(960,18)"><rect width="110" height="36" rx="18" class="cap"/><circle cx="18" cy="18" r="4" class="dot"/><text x="32" y="24" class="pill">Power BI</text></g>
</svg>
